<mxfile host="app.diagrams.net" modified="2021-08-02T00:39:16.088Z" agent="5.0 (Macintosh; Intel Mac OS X 10_15_7) AppleWebKit/537.36 (KHTML, like Gecko) Chrome/92.0.4515.107 Safari/537.36" etag="KLn6i9t5KWAqDIenAYSr" version="14.8.0" type="github">
  <diagram id="EvQWskXlvJIMC3jSUacu" name="Page-1">
    <mxGraphModel dx="3986" dy="1760" grid="1" gridSize="10" guides="1" tooltips="1" connect="1" arrows="1" fold="1" page="1" pageScale="1" pageWidth="4681" pageHeight="3300" math="0" shadow="0">
      <root>
        <mxCell id="0" />
        <mxCell id="1" parent="0" />
        <mxCell id="Es3MpJpOkQYFBjZP4A7Z-2" value="" style="strokeWidth=1;shadow=0;dashed=0;align=center;html=1;shape=mxgraph.mockup.containers.browserWindow;rSize=0;strokeColor=#666666;strokeColor2=#008cff;strokeColor3=#c4c4c4;mainText=,;recursiveResize=0;" vertex="1" parent="1">
          <mxGeometry x="1490" y="950" width="410" height="260" as="geometry" />
        </mxCell>
        <mxCell id="Es3MpJpOkQYFBjZP4A7Z-3" value="Page 1" style="strokeWidth=1;shadow=0;dashed=0;align=center;html=1;shape=mxgraph.mockup.containers.anchor;fontSize=17;fontColor=#666666;align=left;" vertex="1" parent="Es3MpJpOkQYFBjZP4A7Z-2">
          <mxGeometry x="60" y="12" width="110" height="26" as="geometry" />
        </mxCell>
        <mxCell id="Es3MpJpOkQYFBjZP4A7Z-4" value="https://www.legacybuilder.com.au" style="strokeWidth=1;shadow=0;dashed=0;align=center;html=1;shape=mxgraph.mockup.containers.anchor;rSize=0;fontSize=17;fontColor=#666666;align=left;" vertex="1" parent="Es3MpJpOkQYFBjZP4A7Z-2">
          <mxGeometry x="130" y="60" width="250" height="26" as="geometry" />
        </mxCell>
        <mxCell id="Es3MpJpOkQYFBjZP4A7Z-5" value="&lt;font style=&quot;font-size: 24px&quot;&gt;React App&lt;br&gt;(Next.js)&lt;/font&gt;" style="rounded=0;whiteSpace=wrap;html=1;fillColor=#FFE599;" vertex="1" parent="Es3MpJpOkQYFBjZP4A7Z-2">
          <mxGeometry x="90" y="140" width="220" height="90" as="geometry" />
        </mxCell>
        <mxCell id="Es3MpJpOkQYFBjZP4A7Z-6" value="Auth Service" style="swimlane;fontSize=16;fillColor=#E6E6E6;strokeColor=#666666;fontColor=#333333;" vertex="1" parent="1">
          <mxGeometry x="2090" y="910" width="370" height="120" as="geometry" />
        </mxCell>
        <mxCell id="Es3MpJpOkQYFBjZP4A7Z-7" value="Router" style="rounded=0;whiteSpace=wrap;html=1;fontSize=16;fillColor=#D5E8D4;strokeColor=#6c8ebf;" vertex="1" parent="Es3MpJpOkQYFBjZP4A7Z-6">
          <mxGeometry x="20" y="40" width="100" height="60" as="geometry" />
        </mxCell>
        <mxCell id="Es3MpJpOkQYFBjZP4A7Z-17" value="Auth Feature" style="rounded=0;whiteSpace=wrap;html=1;fontSize=16;fillColor=#dae8fc;strokeColor=#6c8ebf;" vertex="1" parent="Es3MpJpOkQYFBjZP4A7Z-6">
          <mxGeometry x="171" y="40" width="160" height="60" as="geometry" />
        </mxCell>
        <mxCell id="Es3MpJpOkQYFBjZP4A7Z-14" value="" style="endArrow=none;html=1;exitX=1;exitY=0.496;exitDx=0;exitDy=0;exitPerimeter=0;" edge="1" parent="1" source="Es3MpJpOkQYFBjZP4A7Z-2">
          <mxGeometry width="50" height="50" relative="1" as="geometry">
            <mxPoint x="2330" y="1070" as="sourcePoint" />
            <mxPoint x="2000" y="1079" as="targetPoint" />
          </mxGeometry>
        </mxCell>
        <mxCell id="Es3MpJpOkQYFBjZP4A7Z-15" value="" style="endArrow=classic;html=1;" edge="1" parent="1">
          <mxGeometry width="50" height="50" relative="1" as="geometry">
            <mxPoint x="2000" y="1080" as="sourcePoint" />
            <mxPoint x="2090" y="980" as="targetPoint" />
            <Array as="points">
              <mxPoint x="2000" y="980" />
            </Array>
          </mxGeometry>
        </mxCell>
        <mxCell id="Es3MpJpOkQYFBjZP4A7Z-16" value="" style="endArrow=classic;html=1;" edge="1" parent="1">
          <mxGeometry width="50" height="50" relative="1" as="geometry">
            <mxPoint x="2000" y="1080" as="sourcePoint" />
            <mxPoint x="2090" y="1160" as="targetPoint" />
            <Array as="points">
              <mxPoint x="2000" y="1160" />
            </Array>
          </mxGeometry>
        </mxCell>
        <mxCell id="Es3MpJpOkQYFBjZP4A7Z-18" value="" style="endArrow=classic;html=1;exitX=1;exitY=0.5;exitDx=0;exitDy=0;" edge="1" parent="1" source="Es3MpJpOkQYFBjZP4A7Z-7">
          <mxGeometry width="50" height="50" relative="1" as="geometry">
            <mxPoint x="2330" y="1080" as="sourcePoint" />
            <mxPoint x="2260" y="980" as="targetPoint" />
          </mxGeometry>
        </mxCell>
        <mxCell id="Es3MpJpOkQYFBjZP4A7Z-20" value="DB For Auth Service" style="swimlane;fontSize=16;fillColor=#f5f5f5;strokeColor=#666666;fontColor=#333333;" vertex="1" parent="1">
          <mxGeometry x="2550" y="910" width="180" height="120" as="geometry" />
        </mxCell>
        <mxCell id="Es3MpJpOkQYFBjZP4A7Z-19" value="User Collection" style="shape=cylinder3;whiteSpace=wrap;html=1;boundedLbl=1;backgroundOutline=1;size=15;fontSize=16;fillColor=#d5e8d4;strokeColor=#82b366;" vertex="1" parent="Es3MpJpOkQYFBjZP4A7Z-20">
          <mxGeometry x="10" y="40" width="160" height="70" as="geometry" />
        </mxCell>
        <mxCell id="Es3MpJpOkQYFBjZP4A7Z-21" value="" style="endArrow=classic;html=1;exitX=1;exitY=0.5;exitDx=0;exitDy=0;" edge="1" parent="1" source="Es3MpJpOkQYFBjZP4A7Z-6">
          <mxGeometry width="50" height="50" relative="1" as="geometry">
            <mxPoint x="2460" y="880" as="sourcePoint" />
            <mxPoint x="2550" y="970" as="targetPoint" />
          </mxGeometry>
        </mxCell>
        <mxCell id="Es3MpJpOkQYFBjZP4A7Z-22" value="PortfoliosÂ Service" style="swimlane;fontSize=16;fillColor=#E6E6E6;strokeColor=#666666;fontColor=#333333;" vertex="1" parent="1">
          <mxGeometry x="2090" y="1090" width="370" height="120" as="geometry" />
        </mxCell>
        <mxCell id="Es3MpJpOkQYFBjZP4A7Z-23" value="Router" style="rounded=0;whiteSpace=wrap;html=1;fontSize=16;fillColor=#D5E8D4;strokeColor=#6c8ebf;" vertex="1" parent="Es3MpJpOkQYFBjZP4A7Z-22">
          <mxGeometry x="20" y="40" width="100" height="60" as="geometry" />
        </mxCell>
        <mxCell id="Es3MpJpOkQYFBjZP4A7Z-24" value="Portfolios Feature" style="rounded=0;whiteSpace=wrap;html=1;fontSize=16;fillColor=#dae8fc;strokeColor=#6c8ebf;" vertex="1" parent="Es3MpJpOkQYFBjZP4A7Z-22">
          <mxGeometry x="171" y="40" width="160" height="60" as="geometry" />
        </mxCell>
        <mxCell id="Es3MpJpOkQYFBjZP4A7Z-25" value="" style="endArrow=classic;html=1;exitX=1;exitY=0.5;exitDx=0;exitDy=0;" edge="1" parent="1" source="Es3MpJpOkQYFBjZP4A7Z-23">
          <mxGeometry width="50" height="50" relative="1" as="geometry">
            <mxPoint x="2330" y="1260" as="sourcePoint" />
            <mxPoint x="2260" y="1160" as="targetPoint" />
          </mxGeometry>
        </mxCell>
        <mxCell id="Es3MpJpOkQYFBjZP4A7Z-26" value="DB For Porto Service" style="swimlane;fontSize=16;fillColor=#f5f5f5;strokeColor=#666666;fontColor=#333333;" vertex="1" parent="1">
          <mxGeometry x="2560" y="1090" width="180" height="120" as="geometry" />
        </mxCell>
        <mxCell id="Es3MpJpOkQYFBjZP4A7Z-27" value="Portfolios&amp;nbsp;Collection" style="shape=cylinder3;whiteSpace=wrap;html=1;boundedLbl=1;backgroundOutline=1;size=15;fontSize=16;fillColor=#d5e8d4;strokeColor=#82b366;" vertex="1" parent="Es3MpJpOkQYFBjZP4A7Z-26">
          <mxGeometry x="10" y="40" width="160" height="70" as="geometry" />
        </mxCell>
        <mxCell id="Es3MpJpOkQYFBjZP4A7Z-28" value="" style="endArrow=classic;html=1;exitX=1;exitY=0.5;exitDx=0;exitDy=0;" edge="1" parent="1" source="Es3MpJpOkQYFBjZP4A7Z-22">
          <mxGeometry width="50" height="50" relative="1" as="geometry">
            <mxPoint x="2460" y="1060" as="sourcePoint" />
            <mxPoint x="2550" y="1150" as="targetPoint" />
          </mxGeometry>
        </mxCell>
        <mxCell id="Es3MpJpOkQYFBjZP4A7Z-30" value="" style="endArrow=classic;html=1;" edge="1" parent="1">
          <mxGeometry width="50" height="50" relative="1" as="geometry">
            <mxPoint x="2000" y="1080" as="sourcePoint" />
            <mxPoint x="2090" y="1320" as="targetPoint" />
            <Array as="points">
              <mxPoint x="2000" y="1320" />
            </Array>
          </mxGeometry>
        </mxCell>
        <mxCell id="Es3MpJpOkQYFBjZP4A7Z-31" value="Properties Service" style="swimlane;fontSize=16;fillColor=#E6E6E6;strokeColor=#666666;fontColor=#333333;" vertex="1" parent="1">
          <mxGeometry x="2090" y="1260" width="370" height="120" as="geometry" />
        </mxCell>
        <mxCell id="Es3MpJpOkQYFBjZP4A7Z-32" value="Router" style="rounded=0;whiteSpace=wrap;html=1;fontSize=16;fillColor=#D5E8D4;strokeColor=#6c8ebf;" vertex="1" parent="Es3MpJpOkQYFBjZP4A7Z-31">
          <mxGeometry x="20" y="40" width="100" height="60" as="geometry" />
        </mxCell>
        <mxCell id="Es3MpJpOkQYFBjZP4A7Z-33" value="&lt;span style=&quot;color: rgb(51 , 51 , 51)&quot;&gt;Properties&lt;/span&gt;&amp;nbsp;Feature" style="rounded=0;whiteSpace=wrap;html=1;fontSize=16;fillColor=#dae8fc;strokeColor=#6c8ebf;" vertex="1" parent="Es3MpJpOkQYFBjZP4A7Z-31">
          <mxGeometry x="171" y="40" width="160" height="60" as="geometry" />
        </mxCell>
        <mxCell id="Es3MpJpOkQYFBjZP4A7Z-34" value="" style="endArrow=classic;html=1;exitX=1;exitY=0.5;exitDx=0;exitDy=0;" edge="1" parent="1" source="Es3MpJpOkQYFBjZP4A7Z-32">
          <mxGeometry width="50" height="50" relative="1" as="geometry">
            <mxPoint x="2330" y="1430" as="sourcePoint" />
            <mxPoint x="2260" y="1330" as="targetPoint" />
          </mxGeometry>
        </mxCell>
        <mxCell id="Es3MpJpOkQYFBjZP4A7Z-35" value="DB For Properties Service" style="swimlane;fontSize=16;fillColor=#f5f5f5;strokeColor=#666666;fontColor=#333333;" vertex="1" parent="1">
          <mxGeometry x="2560" y="1260" width="210" height="120" as="geometry" />
        </mxCell>
        <mxCell id="Es3MpJpOkQYFBjZP4A7Z-36" value="&lt;span style=&quot;color: rgb(51 , 51 , 51)&quot;&gt;Properties&lt;/span&gt;&amp;nbsp;Collection" style="shape=cylinder3;whiteSpace=wrap;html=1;boundedLbl=1;backgroundOutline=1;size=15;fontSize=16;fillColor=#d5e8d4;strokeColor=#82b366;" vertex="1" parent="Es3MpJpOkQYFBjZP4A7Z-35">
          <mxGeometry x="10" y="40" width="190" height="70" as="geometry" />
        </mxCell>
        <mxCell id="Es3MpJpOkQYFBjZP4A7Z-37" value="" style="endArrow=classic;html=1;exitX=1;exitY=0.5;exitDx=0;exitDy=0;" edge="1" parent="1" source="Es3MpJpOkQYFBjZP4A7Z-31">
          <mxGeometry width="50" height="50" relative="1" as="geometry">
            <mxPoint x="2460" y="1230" as="sourcePoint" />
            <mxPoint x="2550" y="1320" as="targetPoint" />
          </mxGeometry>
        </mxCell>
      </root>
    </mxGraphModel>
  </diagram>
</mxfile>
